# xmcd
#
# Track frame offsets:
#	155
#	16367
#	36435
#	55870
#	76165
#	101142
#	120642
#	140822
#	160502
#	180432
#	199717
#	222812
#
# Disc length: 3283 seconds
#
# Revision: 0
# Processed by: cddbd v1.5.2PL0 Copyright (c) Steve Scherf et al.
# Submitted via: EasyCDDAExtractor 15.3.0.1
#
DISCID=9e0cd10c
DTITLE=Toni Braxton - Secrets
DYEAR=1900
DGENRE=
TTITLE0=come On Over here
TTITLE1=You're makin Me High
TTITLE2=There's No Me Without You
TTITLE3=Un-Break My Heart
TTITLE4=Talking In His Sleep
TTITLE5=How Could An Angel Break My Heart
TTITLE6=Find me A Man
TTITLE7=Let It Flow
TTITLE8=Why Should I Care
TTITLE9=I Dont' Want To
TTITLE10=I Love Me Me Some Him
TTITLE11=In The late of Night
EXTD=
EXTT0=
EXTT1=
EXTT2=
EXTT3=
EXTT4=
EXTT5=
EXTT6=
EXTT7=
EXTT8=
EXTT9=
EXTT10=
EXTT11=
PLAYORDER=
